<?xml version="1.0" encoding="utf-8"?>
<!-- Generator: Adobe Illustrator 29.7.1, SVG Export Plug-In . SVG Version: 9.03 Build 0)  -->
<svg version="1.1" id="Layer_1" xmlns="http://www.w3.org/2000/svg" xmlns:xlink="http://www.w3.org/1999/xlink" x="0px" y="0px"
	 width="630px" height="450px" viewBox="0 0 630 450" style="enable-background:new 0 0 630 450;" xml:space="preserve">
<style type="text/css">
	.st0{fill:#8ED9D4;}
	.st1{fill:#FFFFFF;}
	.st2{fill:none;}
</style>
<g>
	<path class="st0" d="M567.3828125,11.2184525H378.1671753l-47.8101196,49.5258827v89.5248566l47.8101196,49.5218658h64.7327271
		l29.7785339,31.0198212c0,0,25.9323425-27.0131531,29.778717-31.0198212h64.9256592L615,150.2691956V60.7443352
		L567.3828125,11.2184525z"/>
	<path class="st1" d="M424.828949,51.2598572h95.6991882v12.4823647H424.828949V51.2598572z"/>
	<path class="st1" d="M462.1712952,91.7195969v18.9329834h-18.9297485V91.7195969H462.1712952z M502.115509,91.7195969v18.9329834
		h-18.9329834V91.7195969H502.115509z"/>
	<path class="st1" d="M506.9019165,132.9139709l-30.9996948,32.1403046h-6.2411804l-31.2059021-32.3497467l8.4257507-7.9037704
		l25.9023743,26.6305466l25.5897827-26.7368774L506.9019165,132.9139709z"/>
	<path d="M117.9052963,230.8111877v161.362854L73.454689,438.7815552H36.5489388v-22.9016724h27.2097321l29.093792-30.9778442
		v-130.91922H15v-23.1716309H117.9052963z"/>
	<path d="M285.5512085,230.8111877v23.1716309h-90.5124207l-7.0049133,7.5419922v47.4116821h62.2285614v23.1658936h-62.2285614
		v49.8356934l9.4289246,14.2797852h88.0884094v23.1658936H185.069931l-22.3588562-33.671814V254.2527924l22.8988037-23.4416046
		H285.5512085z"/>
	<path d="M367.5338135,254.0002594h82.142334v-0.0568237l-22.7069702-23.1044006h-69.1427307l-27.4755859,27.9866486v160.5381775
		h25.3183899v-87.2515259h60.627594v-23.1612244h-60.627594v-42.8593445L367.5338135,254.0002594z"/>
	<path d="M613.8352661,230.8111877v23.1716309h-82.1605225l-11.8529053,12.1200256v42.8336487h60.6115723v23.1658936h-60.6115723
		v87.2813721H494.499054V258.8308411l27.4768372-28.0196533H613.8352661z"/>
	<polyline class="st2" points="449.6761475,254.0003815 449.6761475,253.9436188 426.9691772,230.8392639 	"/>
</g>
</svg>
